<svg width="165" height="33" viewBox="0 0 165 33" fill="none" xmlns="http://www.w3.org/2000/svg">
<path d="M37.0234 26.8672C36.7109 26.8672 36.3711 26.8398 36.0039 26.7852C35.6445 26.7383 35.2812 26.6328 34.9141 26.4688C34.5547 26.3047 34.207 26.0742 33.8711 25.7773C33.543 25.4727 33.25 25.0742 32.9922 24.582C32.7422 24.0898 32.5391 23.4844 32.3828 22.7656C32.2344 22.0391 32.1602 21.1758 32.1602 20.1758V13.0859C32.1602 12.0781 32.2383 11.2188 32.3945 10.5078C32.5508 9.78906 32.7578 9.1875 33.0156 8.70312C33.2734 8.21094 33.5703 7.82031 33.9062 7.53125C34.2422 7.24219 34.5898 7.02344 34.9492 6.875C35.3086 6.71875 35.6641 6.61719 36.0156 6.57031C36.375 6.52344 36.707 6.5 37.0117 6.5C37.8086 6.5 38.4727 6.61328 39.0039 6.83984C39.543 7.05859 39.9727 7.36328 40.293 7.75391C40.6211 8.13672 40.8516 8.58594 40.9844 9.10156C41.125 9.61719 41.1953 10.1641 41.1953 10.7422C41.1953 11.1719 41.1719 11.5703 41.125 11.9375C41.0859 12.2969 41.0234 12.6953 40.9375 13.1328H38.4766V12.1133C38.4766 11.0117 38.3555 10.1875 38.1133 9.64062C37.8711 9.09375 37.5156 8.82031 37.0469 8.82031C36.7656 8.82031 36.5195 8.875 36.3086 8.98438C36.0977 9.09375 35.9219 9.28125 35.7812 9.54688C35.6406 9.80469 35.5312 10.1484 35.4531 10.5781C35.3828 11.0078 35.3477 11.543 35.3477 12.1836V21.3242C35.3477 21.9492 35.375 22.4688 35.4297 22.8828C35.4922 23.2969 35.5898 23.6289 35.7227 23.8789C35.8555 24.1289 36.0273 24.3086 36.2383 24.418C36.457 24.5195 36.7188 24.5703 37.0234 24.5703C37.2188 24.5703 37.4062 24.5273 37.5859 24.4414C37.7656 24.3477 37.9219 24.207 38.0547 24.0195C38.1953 23.8242 38.3047 23.582 38.3828 23.293C38.4688 22.9961 38.5117 22.6484 38.5117 22.25V20.293H41.2891V22.1445C41.2891 23.7539 40.9219 24.9414 40.1875 25.707C39.4531 26.4727 38.3984 26.8594 37.0234 26.8672Z" fill="#F7F8FF"/>
<path d="M47.5197 6.67578H50.8127C51.1877 6.67578 51.5978 6.69141 52.0431 6.72266C52.4963 6.75391 52.9455 6.83203 53.3908 6.95703C53.8439 7.07422 54.2775 7.25391 54.6916 7.49609C55.1134 7.73828 55.4845 8.07031 55.8048 8.49219C56.133 8.91406 56.3947 9.44531 56.59 10.0859C56.7853 10.7188 56.883 11.4883 56.883 12.3945V12.8984C56.883 14.4219 56.6642 15.6641 56.2267 16.625C55.7892 17.5781 55.1447 18.2656 54.2931 18.6875L57.5041 26.6914H54.2931L51.633 19.2031H50.4963V26.6914H47.5197V6.67578ZM50.9533 17.0117C51.4845 17.0117 51.9338 16.9531 52.3009 16.8359C52.6681 16.7188 52.965 16.5234 53.1916 16.25C53.4181 15.9688 53.5822 15.6016 53.6838 15.1484C53.7853 14.6875 53.8361 14.1211 53.8361 13.4492V11.8672C53.8361 11.3516 53.7892 10.9062 53.6955 10.5312C53.6017 10.1562 53.4416 9.84766 53.215 9.60547C52.9963 9.36328 52.7033 9.18359 52.3361 9.06641C51.9689 8.94922 51.508 8.89062 50.9533 8.89062H50.4963V17.0117H50.9533Z" fill="#F7F8FF"/>
<path d="M63.6409 6.67578H71.0589V9.06641H66.6761V15.0547H70.0628V17.4453H66.6761V24.3008H71.1761V26.6914H63.6409V6.67578Z" fill="#F7F8FF"/>
<path d="M76.4341 22.6367C76.4341 22.207 76.4575 21.8125 76.5044 21.4531C76.5591 21.0859 76.6372 20.6914 76.7388 20.2695H79.0942V21.2422C79.0942 21.7812 79.1255 22.2578 79.188 22.6719C79.2583 23.0859 79.3677 23.4375 79.5161 23.7266C79.6723 24.0078 79.8755 24.2227 80.1255 24.3711C80.3833 24.5117 80.6958 24.582 81.063 24.582C81.6411 24.582 82.0825 24.4258 82.3872 24.1133C82.6919 23.793 82.8442 23.3281 82.8442 22.7188C82.8442 22.4062 82.8208 22.1211 82.7739 21.8633C82.7348 21.5977 82.6606 21.3359 82.5513 21.0781C82.4497 20.8203 82.3091 20.5508 82.1294 20.2695C81.9497 19.9805 81.7192 19.6602 81.438 19.3086L78.2739 15.5469C77.7114 14.8281 77.2778 14.1055 76.9731 13.3789C76.6684 12.6445 76.5161 11.8633 76.5161 11.0352C76.5161 10.3711 76.6177 9.76172 76.8208 9.20703C77.0317 8.65234 77.3325 8.17578 77.7231 7.77734C78.1138 7.37109 78.5942 7.05859 79.1645 6.83984C79.7427 6.61328 80.395 6.5 81.1216 6.5C82.0044 6.5 82.7388 6.625 83.3247 6.875C83.9184 7.125 84.3911 7.45312 84.7427 7.85938C85.0942 8.26562 85.3403 8.72266 85.4809 9.23047C85.6294 9.73047 85.7036 10.2344 85.7036 10.7422C85.7036 11.1719 85.6684 11.5703 85.5981 11.9375C85.5356 12.2969 85.4614 12.6953 85.3755 13.1328H83.0317V12.1836C83.0317 11.1211 82.8794 10.3086 82.5747 9.74609C82.27 9.17578 81.7739 8.89062 81.0864 8.89062C80.5161 8.89062 80.0903 9.05078 79.8091 9.37109C79.5278 9.68359 79.3872 10.1055 79.3872 10.6367C79.3872 10.918 79.4067 11.1719 79.4458 11.3984C79.4927 11.625 79.5552 11.8359 79.6333 12.0312C79.7192 12.2188 79.8208 12.4023 79.938 12.582C80.0552 12.7617 80.188 12.9492 80.3364 13.1445L83.8638 17.4102C84.5044 18.2461 84.9966 19.0508 85.3403 19.8242C85.6841 20.5898 85.8559 21.4023 85.8559 22.2617C85.8559 22.9727 85.7427 23.6133 85.5161 24.1836C85.2973 24.7539 84.9809 25.2383 84.5669 25.6367C84.1528 26.0352 83.6528 26.3438 83.0669 26.5625C82.4809 26.7734 81.8208 26.8789 81.0864 26.8789C80.1802 26.8789 79.4263 26.7578 78.8247 26.5156C78.2309 26.2734 77.7544 25.9531 77.395 25.5547C77.0434 25.1562 76.7934 24.7031 76.645 24.1953C76.5044 23.6875 76.4341 23.168 76.4341 22.6367Z" fill="#F7F8FF"/>
<path d="M96.5631 26.8672C96.2506 26.8672 95.9108 26.8398 95.5436 26.7852C95.1842 26.7383 94.8209 26.6328 94.4538 26.4688C94.0944 26.3047 93.7467 26.0742 93.4108 25.7773C93.0827 25.4727 92.7897 25.0742 92.5319 24.582C92.2819 24.0898 92.0788 23.4844 91.9225 22.7656C91.7741 22.0391 91.6998 21.1758 91.6998 20.1758V13.0859C91.6998 12.0781 91.778 11.2188 91.9342 10.5078C92.0905 9.78906 92.2975 9.1875 92.5553 8.70312C92.8131 8.21094 93.11 7.82031 93.4459 7.53125C93.7819 7.24219 94.1295 7.02344 94.4889 6.875C94.8483 6.71875 95.2038 6.61719 95.5553 6.57031C95.9147 6.52344 96.2467 6.5 96.5514 6.5C97.3483 6.5 98.0123 6.61328 98.5436 6.83984C99.0827 7.05859 99.5123 7.36328 99.8327 7.75391C100.161 8.13672 100.391 8.58594 100.524 9.10156C100.665 9.61719 100.735 10.1641 100.735 10.7422C100.735 11.1719 100.712 11.5703 100.665 11.9375C100.626 12.2969 100.563 12.6953 100.477 13.1328H98.0163V12.1133C98.0163 11.0117 97.8952 10.1875 97.653 9.64062C97.4108 9.09375 97.0553 8.82031 96.5866 8.82031C96.3053 8.82031 96.0592 8.875 95.8483 8.98438C95.6373 9.09375 95.4616 9.28125 95.3209 9.54688C95.1803 9.80469 95.0709 10.1484 94.9928 10.5781C94.9225 11.0078 94.8873 11.543 94.8873 12.1836V21.3242C94.8873 21.9492 94.9147 22.4688 94.9694 22.8828C95.0319 23.2969 95.1295 23.6289 95.2623 23.8789C95.3952 24.1289 95.567 24.3086 95.778 24.418C95.9967 24.5195 96.2584 24.5703 96.5631 24.5703C96.7584 24.5703 96.9459 24.5273 97.1256 24.4414C97.3053 24.3477 97.4616 24.207 97.5944 24.0195C97.735 23.8242 97.8444 23.582 97.9225 23.293C98.0084 22.9961 98.0514 22.6484 98.0514 22.25V20.293H100.829V22.1445C100.829 23.7539 100.462 24.9414 99.7272 25.707C98.9928 26.4727 97.9381 26.8594 96.5631 26.8672Z" fill="#F7F8FF"/>
<path d="M107.059 6.67578H114.477V9.06641H110.095V15.0547H113.481V17.4453H110.095V24.3008H114.595V26.6914H107.059V6.67578Z" fill="#F7F8FF"/>
<path d="M120.626 6.67578H123.087L127.938 20.0703H128.009C127.985 19.7578 127.954 19.4102 127.915 19.0273C127.876 18.6445 127.841 18.2109 127.81 17.7266C127.778 17.2344 127.751 16.6797 127.728 16.0625C127.704 15.4453 127.692 14.75 127.692 13.9766V6.67578H130.411V26.6914H127.927L123.099 13.6484H123.005C123.028 14 123.06 14.3828 123.099 14.7969C123.138 15.2031 123.173 15.6836 123.204 16.2383C123.235 16.793 123.263 17.4414 123.286 18.1836C123.31 18.918 123.321 19.793 123.321 20.8086V26.6914H120.626V6.67578Z" fill="#F7F8FF"/>
<path d="M137.685 6.67578H140.837C141.314 6.67578 141.806 6.69141 142.314 6.72266C142.829 6.74609 143.329 6.82812 143.814 6.96875C144.306 7.10938 144.767 7.32812 145.196 7.625C145.634 7.91406 146.017 8.32422 146.345 8.85547C146.673 9.37891 146.931 10.043 147.118 10.8477C147.314 11.6445 147.411 12.6211 147.411 13.7773V19.5898C147.411 20.7461 147.314 21.7266 147.118 22.5312C146.931 23.3359 146.673 24 146.345 24.5234C146.017 25.0469 145.634 25.457 145.196 25.7539C144.767 26.043 144.306 26.2578 143.814 26.3984C143.329 26.5391 142.829 26.625 142.314 26.6562C141.806 26.6797 141.314 26.6914 140.837 26.6914H137.685V6.67578ZM141.493 24.5703C142.04 24.5703 142.489 24.5 142.841 24.3594C143.2 24.2188 143.482 23.9727 143.685 23.6211C143.896 23.2617 144.04 22.7773 144.118 22.168C144.196 21.5508 144.235 20.7734 144.235 19.8359V13.625C144.235 12.6875 144.196 11.9141 144.118 11.3047C144.04 10.6875 143.896 10.2031 143.685 9.85156C143.482 9.49219 143.2 9.24219 142.841 9.10156C142.489 8.96094 142.04 8.89062 141.493 8.89062H140.72V24.5703H141.493Z" fill="#F7F8FF"/>
<path d="M158.4 26.8672C158.079 26.8672 157.732 26.8398 157.357 26.7852C156.982 26.7383 156.611 26.6328 156.243 26.4688C155.876 26.3047 155.521 26.0742 155.177 25.7773C154.841 25.4727 154.54 25.0742 154.275 24.582C154.017 24.0898 153.81 23.4844 153.654 22.7656C153.497 22.0391 153.419 21.1758 153.419 20.1758V13.0859C153.419 12.0781 153.497 11.2188 153.654 10.5078C153.818 9.78906 154.033 9.1875 154.298 8.70312C154.564 8.21094 154.865 7.82031 155.2 7.53125C155.544 7.24219 155.9 7.02344 156.267 6.875C156.642 6.71875 157.013 6.61719 157.38 6.57031C157.747 6.52344 158.087 6.5 158.4 6.5C158.697 6.5 159.025 6.52344 159.384 6.57031C159.751 6.60938 160.115 6.70312 160.474 6.85156C160.841 6.99219 161.197 7.20703 161.54 7.49609C161.884 7.77734 162.189 8.16406 162.454 8.65625C162.72 9.14062 162.931 9.74609 163.087 10.4727C163.251 11.1914 163.333 12.0625 163.333 13.0859V20.1758C163.333 21.168 163.251 22.0234 163.087 22.7422C162.923 23.4531 162.708 24.0586 162.443 24.5586C162.177 25.0508 161.868 25.4492 161.517 25.7539C161.173 26.0508 160.818 26.2852 160.45 26.457C160.091 26.6211 159.732 26.7305 159.372 26.7852C159.013 26.8398 158.689 26.8672 158.4 26.8672ZM158.4 24.582C158.697 24.582 158.954 24.5312 159.173 24.4297C159.4 24.3281 159.583 24.1523 159.724 23.9023C159.872 23.6523 159.982 23.3242 160.052 22.918C160.13 22.5039 160.169 21.9844 160.169 21.3594V12.2539C160.169 11.6133 160.13 11.0781 160.052 10.6484C159.982 10.2188 159.872 9.875 159.724 9.61719C159.583 9.35156 159.4 9.16406 159.173 9.05469C158.954 8.94531 158.697 8.89062 158.4 8.89062C158.095 8.89062 157.829 8.94531 157.603 9.05469C157.376 9.16406 157.189 9.35156 157.04 9.61719C156.892 9.875 156.779 10.2188 156.7 10.6484C156.63 11.0781 156.595 11.6133 156.595 12.2539V21.3594C156.595 21.9844 156.63 22.5039 156.7 22.918C156.779 23.3242 156.892 23.6523 157.04 23.9023C157.189 24.1523 157.376 24.3281 157.603 24.4297C157.829 24.5312 158.095 24.582 158.4 24.582Z" fill="#F7F8FF"/>
<path d="M0.439338 18.4643C0.158034 18.7456 0 19.1271 0 19.5249V30.975C0 31.8035 0.671574 32.475 1.5 32.475H4.42926C5.25769 32.475 5.92926 31.8035 5.92926 30.975V16.5957C5.92926 15.2593 4.31355 14.5901 3.3686 15.535L0.439338 18.4643Z" fill="#F7F8FF"/>
<path d="M7.62039 11.2832C7.33909 11.5645 7.18105 11.9461 7.18105 12.3439V30.975C7.18105 31.8035 7.85263 32.475 8.68105 32.475H11.6103C12.4387 32.475 13.1103 31.8035 13.1103 30.975V9.41461C13.1103 8.07825 11.4946 7.409 10.5497 8.35395L7.62039 11.2832Z" fill="#F7F8FF"/>
<path d="M15.032 3.87162C14.7507 4.15292 14.5926 4.53445 14.5926 4.93228V30.975C14.5926 31.8035 15.2642 32.475 16.0926 32.475H19.0219C19.8503 32.475 20.5219 31.8035 20.5219 30.975V2.00301C20.5219 0.666649 18.9062 -0.00260109 17.9612 0.942348L15.032 3.87162Z" fill="#F7F8FF"/>
</svg>
