<svg width="48" height="48" viewBox="0 0 48 48" fill="none" xmlns="http://www.w3.org/2000/svg">
<path fill-rule="evenodd" clip-rule="evenodd" d="M20.1109 6.11091C21.1424 5.07946 22.5413 4.5 24 4.5C25.4587 4.5 26.8576 5.07946 27.8891 6.11091C28.9205 7.14236 29.5 8.54131 29.5 10C29.5 10.8284 28.8284 11.5 28 11.5C27.1716 11.5 26.5 10.8284 26.5 10C26.5 9.33696 26.2366 8.70107 25.7678 8.23223C25.2989 7.76339 24.663 7.5 24 7.5C23.337 7.5 22.7011 7.76339 22.2322 8.23223C21.7634 8.70107 21.5 9.33696 21.5 10C21.5 10.8284 20.8284 11.5 20 11.5C19.1716 11.5 18.5 10.8284 18.5 10C18.5 8.54131 19.0795 7.14236 20.1109 6.11091ZM13.4311 17.5C12.8336 17.4996 12.2558 17.7132 11.8022 18.1021C11.3487 18.491 11.0494 19.0295 10.9586 19.62L8.18856 37.62C8.18856 37.62 8.18857 37.6199 8.18856 37.62C8.1338 37.9762 8.15669 38.3402 8.2557 38.6868C8.35472 39.0334 8.52751 39.3544 8.76225 39.628C8.99697 39.9016 9.28808 40.1211 9.61562 40.2716C9.94315 40.4221 10.2994 40.5 10.6598 40.5H37.3387C37.6989 40.4997 38.0548 40.4215 38.3821 40.2708C38.7093 40.1202 39.0001 39.9006 39.2346 39.627C39.469 39.3535 39.6416 39.0326 39.7405 38.6862C39.8393 38.3398 39.8622 37.9762 39.8074 37.6201C39.8074 37.6201 39.8075 37.6202 39.8074 37.6201L37.0374 19.6201C36.9464 19.0279 36.648 18.4901 36.1962 18.1025C35.7429 17.7137 35.1654 17.4999 34.5682 17.5H13.4311ZM13.4329 14.5C12.1185 14.4992 10.8473 14.9691 9.84947 15.8247C8.85168 16.6802 8.19326 17.8648 7.99344 19.1639C7.99345 19.1638 7.99344 19.1639 7.99344 19.1639L5.22344 37.1638C5.10291 37.9476 5.15327 38.7484 5.37111 39.5109C5.58896 40.2734 5.96912 40.9798 6.48552 41.5816C7.00193 42.1834 7.64237 42.6664 8.36294 42.9976C9.08345 43.3287 9.86704 43.5001 10.66 43.5C10.6599 43.5 10.6601 43.5 10.66 43.5H37.3413C38.1339 43.4993 38.9169 43.3273 39.6368 42.9958C40.3567 42.6644 40.9965 42.1812 41.5123 41.5795C42.0281 40.9778 42.4077 40.2717 42.6253 39.5096C42.8428 38.7475 42.893 37.9473 42.7726 37.164L40.0026 19.164C40.0026 19.1641 40.0026 19.164 40.0026 19.164C39.8031 17.8674 39.1483 16.6823 38.1496 15.8256C37.1524 14.9701 35.8819 14.4999 34.568 14.5C34.5681 14.5 34.5679 14.5 34.568 14.5H13.4329Z" fill="#292C39"/>
</svg>
