<svg width="24" height="24" viewBox="0 0 24 24" fill="none" xmlns="http://www.w3.org/2000/svg">
<path fill-rule="evenodd" clip-rule="evenodd" d="M5.80816 3.66277C6.05356 3.52301 6.33158 3.45069 6.61397 3.45316C6.89629 3.45562 7.17293 3.53275 7.4158 3.6767C7.41587 3.67674 7.41574 3.67666 7.4158 3.6767L19.1388 10.6237C19.3776 10.7654 19.5758 10.967 19.7132 11.2083C19.8506 11.4495 19.9228 11.7224 19.9228 12C19.9228 12.2776 19.8506 12.5505 19.7132 12.7917C19.5758 13.033 19.378 13.2343 19.1393 13.376L7.416 20.3232C7.41593 20.3232 7.41607 20.3231 7.416 20.3232C7.17313 20.4671 6.8963 20.5444 6.61397 20.5468C6.33157 20.5493 6.05356 20.477 5.80816 20.3372C5.56276 20.1974 5.35873 19.9952 5.21679 19.7511C5.07485 19.5069 5.00005 19.2296 5 18.9472V5.05299C5.00005 4.77058 5.07485 4.49305 5.21679 4.2489C5.35873 4.00476 5.56276 3.80254 5.80816 3.66277ZM7 5.75509V18.2449L17.5382 12L7 5.75509Z" fill="#406BD0"/>
</svg>
