<svg width="48" height="48" viewBox="0 0 48 48" fill="none" xmlns="http://www.w3.org/2000/svg">
<path fill-rule="evenodd" clip-rule="evenodd" d="M12 9.5C11.337 9.5 10.7011 9.76339 10.2322 10.2322C9.76339 10.7011 9.5 11.337 9.5 12V36C9.5 36.663 9.76339 37.2989 10.2322 37.7678C10.7011 38.2366 11.337 38.5 12 38.5H36C36.663 38.5 37.2989 38.2366 37.7678 37.7678C38.2366 37.2989 38.5 36.663 38.5 36V12C38.5 11.337 38.2366 10.7011 37.7678 10.2322C37.2989 9.76339 36.663 9.5 36 9.5H25.5V18C25.5 18.8284 24.8284 19.5 24 19.5C23.1716 19.5 22.5 18.8284 22.5 18V9.5H12ZM12 6.5C10.5413 6.5 9.14236 7.07946 8.11091 8.11091C7.07946 9.14236 6.5 10.5413 6.5 12V36C6.5 37.4587 7.07946 38.8576 8.11091 39.8891C9.14236 40.9205 10.5413 41.5 12 41.5H36C37.4587 41.5 38.8576 40.9205 39.8891 39.8891C40.9205 38.8576 41.5 37.4587 41.5 36V12C41.5 10.5413 40.9205 9.14236 39.8891 8.11091C38.8576 7.07946 37.4587 6.5 36 6.5H12Z" fill="#292C39"/>
</svg>
