<svg width="48" height="48" viewBox="0 0 48 48" fill="none" xmlns="http://www.w3.org/2000/svg">
<path fill-rule="evenodd" clip-rule="evenodd" d="M15.9388 24.5127C15.3538 23.9267 15.3538 22.9767 15.9388 22.3907C16.5248 21.8057 17.4748 21.8057 18.0608 22.3907L22.9998 27.3307L31.9388 18.3907C32.5248 17.8057 33.4748 17.8057 34.0608 18.3907C34.6458 18.9767 34.6458 19.9267 34.0608 20.5127L24.0608 30.5127C23.4748 31.0977 22.5248 31.0977 21.9388 30.5127L15.9388 24.5127Z" fill="#292C39"/>
<path fill-rule="evenodd" clip-rule="evenodd" d="M8.51481 36.6626L4.77481 10.4896C4.64981 9.61662 4.8608 8.72762 5.3638 8.00362C5.8678 7.27862 6.6268 6.77162 7.4828 6.58562L22.8068 3.17962C23.5928 3.00462 24.4068 3.00462 25.1938 3.17962L40.5158 6.58762C42.3028 6.98262 43.4838 8.67762 43.2248 10.4916L39.4848 36.6636C39.3978 37.2766 39.1028 39.4446 36.8108 41.4516C34.7938 43.2176 31.0578 44.9516 23.9998 44.9516C16.9418 44.9516 13.2058 43.2176 11.1888 41.4516C8.89681 39.4446 8.60181 37.2766 8.51481 36.6626ZM11.4848 36.2416C11.5388 36.6206 11.7448 37.9506 13.1658 39.1946C14.8638 40.6806 18.0578 41.9516 23.9998 41.9516C29.9418 41.9516 33.1358 40.6806 34.8338 39.1946C36.2548 37.9506 36.4608 36.6206 36.5148 36.2416V36.2396L40.2548 10.0676C40.2918 9.80962 40.1198 9.57162 39.8668 9.51562L24.5418 6.10762C24.1848 6.02862 23.8148 6.02862 23.4568 6.10762L8.13281 9.51362L8.1268 9.51562C8.0058 9.54162 7.89881 9.61362 7.82781 9.71562C7.75681 9.81762 7.7268 9.94262 7.7448 10.0656L11.4848 36.2396V36.2416Z" fill="#292C39"/>
</svg>
