<svg width="24" height="24" viewBox="0 0 24 24" fill="none" xmlns="http://www.w3.org/2000/svg">
<path fill-rule="evenodd" clip-rule="evenodd" d="M17.7071 7.79289C18.0976 8.18342 18.0976 8.81658 17.7071 9.20711L10.7071 16.2071C10.3166 16.5976 9.68342 16.5976 9.29289 16.2071L6.29289 13.2071C5.90237 12.8166 5.90237 12.1834 6.29289 11.7929C6.68342 11.4024 7.31658 11.4024 7.70711 11.7929L10 14.0858L16.2929 7.79289C16.6834 7.40237 17.3166 7.40237 17.7071 7.79289Z" fill="#406BD0"/>
<path fill-rule="evenodd" clip-rule="evenodd" d="M1 12C1 5.92472 5.92472 1 12 1C18.0753 1 23 5.92472 23 12C23 18.0753 18.0753 23 12 23C5.92472 23 1 18.0753 1 12ZM12 3C7.02928 3 3 7.02928 3 12C3 16.9707 7.02928 21 12 21C16.9707 21 21 16.9707 21 12C21 7.02928 16.9707 3 12 3Z" fill="#406BD0"/>
</svg>
